<html>
<head>
<meta charset="UTF-8">
<meta name="viewport" content="width=device-width, initial-scale=1.0"/>

<style>
.comment
{
    padding-left: 20px;
    margin-top: 4px;
    margin-right: 4px;
    margin-bottom: 4px;
    border: 2px #000 solid;
}
.submission
{
    border: 4px #00f solid;
    padding-left: 20px;
}
.hidden
{
    display: none;
}
</style>
</head>
<body><div class="submission" id="t3_7wx6h4">
    <p class="userinfo">
        <a href="https://www.reddit.com/u/pervysatanseabass">pervysatanseabass</a>
        <span class="score"> | 27 points</span>
        <span class="timestamp"> | Feb 12 2018 01:14:12</span>
    </p>
    <strong>[MOVIE] The Princess and The Frog 2009 1080p BluRay x265 1.53GB</strong>
    <p><p><a href="https://mega.nz/#!Z4w0EQzC">MEGA</a></p>
<p>Key: !0n6eyCLizZ94fyvmqvPiOZlU9b0vQnCQG6wHFeep8cM</p></p>
    <p class="toolbar">
        <a href="https://www.reddit.com/r/megalinks/comments/7wx6h4">permalink</a>
    </p>
</div>
<div class="comment" id="t1_du3v46i">
    <p class="userinfo">
        <a
        class="toggle_hide_button"
        href="javascript:void(0)"
        onclick="toggle_collapse(this.parentElement.parentElement)">[-]
        </a>
        <a href="https://www.reddit.com/u/achilles1515">achilles1515</a>
        <span class="score"> | 6 points</span>
        <span class="timestamp"> | Feb 12 2018 01:33:21</span>
    </p>
    <div class="collapsible">
        <p>Who encoded this file? Do you have any details on the source of the file or where it was originally downloaded from?</p>
        <p class="toolbar">
            <a href="https://www.reddit.com/r/megalinks/comments/7wx6h4/_/du3v46i">permalink</a>
        </p>
        <div class="comment" id="t1_du40xj9">
    <p class="userinfo">
        <a
        class="toggle_hide_button"
        href="javascript:void(0)"
        onclick="toggle_collapse(this.parentElement.parentElement)">[-]
        </a>
        <a href="https://www.reddit.com/u/viper8828">viper8828</a>
        <span class="score"> | 2 points</span>
        <span class="timestamp"> | Feb 12 2018 03:31:56</span>
    </p>
    <div class="collapsible">
        <p>would love to know if this is 10bit or 8bit and source media info if possible too b4 download</p>
        <p class="toolbar">
            <a href="https://www.reddit.com/r/megalinks/comments/7wx6h4/_/du40xj9">permalink</a>
        </p>
        
    </div>
</div>

<div class="comment" id="t1_du5mt3r">
    <p class="userinfo">
        <a
        class="toggle_hide_button"
        href="javascript:void(0)"
        onclick="toggle_collapse(this.parentElement.parentElement)">[-]
        </a>
        <a href="https://www.reddit.com/u/viper8828">viper8828</a>
        <span class="score"> | 2 points</span>
        <span class="timestamp"> | Feb 13 2018 00:42:28</span>
    </p>
    <div class="collapsible">
        <p>source is the 6.56 gb file on here</p>
        <p class="toolbar">
            <a href="https://www.reddit.com/r/megalinks/comments/7wx6h4/_/du5mt3r">permalink</a>
        </p>
        
    </div>
</div>
    </div>
</div>

<div class="comment" id="t1_du4gw2o">
    <p class="userinfo">
        <a
        class="toggle_hide_button"
        href="javascript:void(0)"
        onclick="toggle_collapse(this.parentElement.parentElement)">[-]
        </a>
        <a href="https://www.reddit.com/u/Avid28">Avid28</a>
        <span class="score"> | 3 points</span>
        <span class="timestamp"> | Feb 12 2018 12:13:48</span>
    </p>
    <div class="collapsible">
        <p>Man these comments. Beggars being choosers. </p>
        <p class="toolbar">
            <a href="https://www.reddit.com/r/megalinks/comments/7wx6h4/_/du4gw2o">permalink</a>
        </p>
        <div class="comment" id="t1_du4iv43">
    <p class="userinfo">
        <a
        class="toggle_hide_button"
        href="javascript:void(0)"
        onclick="toggle_collapse(this.parentElement.parentElement)">[-]
        </a>
        <a href="https://www.reddit.com/u/viper8828">viper8828</a>
        <span class="score"> | 2 points</span>
        <span class="timestamp"> | Feb 12 2018 13:13:12</span>
    </p>
    <div class="collapsible">
        <p>My monthly isp is insanely low so I need to make sure what I want is what I'm going to download, can't afford to waste even a gig bcus the one month we went over was by only 10 gigs but of course they want another $50</p>
        <p class="toolbar">
            <a href="https://www.reddit.com/r/megalinks/comments/7wx6h4/_/du4iv43">permalink</a>
        </p>
        
    </div>
</div>
    </div>
</div>

<div class="comment" id="t1_du4tzzn">
    <p class="userinfo">
        <a
        class="toggle_hide_button"
        href="javascript:void(0)"
        onclick="toggle_collapse(this.parentElement.parentElement)">[-]
        </a>
        <a href="https://www.reddit.com/u/viper8828">viper8828</a>
        <span class="score"> | 2 points</span>
        <span class="timestamp"> | Feb 12 2018 16:48:54</span>
    </p>
    <div class="collapsible">
        <p>General Complete name : TPATF2009x265.mp4 Format : MPEG-4 Format profile : Base Media / Version 2 Codec ID : mp42 (isom/iso2/mp41) File size : 1.53 GiB Duration : 1 h 37 min Overall bit rate mode : Variable Overall bit rate : 2 243 kb/s Encoded date : UTC 2018-02-11 22:30:38 Tagged date : UTC 2018-02-11 22:30:38 Writing application : HandBrake 1.0.7 2017040900</p>
<p>Video ID : 1 Format : HEVC Format/Info : High Efficiency Video Coding Format profile : Main@L4@Main Codec ID : hev1 Codec ID/Info : High Efficiency Video Coding Duration : 1 h 37 min Bit rate : 2 076 kb/s Width : 1 920 pixels Height : 1 080 pixels Display aspect ratio : 16:9 Frame rate mode : Variable Frame rate : 23.976 (24000/1001) FPS Minimum frame rate : 23.974 FPS Maximum frame rate : 23.981 FPS Color space : YUV Chroma subsampling : 4:2:0 Bit depth : 8 bits Bits/(Pixel*Frame) : 0.042 Stream size : 1.41 GiB (93%) Writing library : x265 2.1:[Windows][GCC 5.3.1][64 bit] 8bit Encoding settings : wpp / ctu=64 / min-cu-size=8 / max-tu-size=32 / tu-intra-depth=1 / tu-inter-depth=1 / me=1 / subme=2 / merange=57 / no-rect / no-amp / max-merge=2 / temporal-mvp / no-early-skip / rskip / rdpenalty=0 / no-tskip / no-tskip-fast / strong-intra-smoothing / no-lossless / no-cu-lossless / no-constrained-intra / fast-intra / open-gop / no-temporal-layers / interlace=0 / keyint=240 / min-keyint=24 / scenecut=40 / rc-lookahead=15 / lookahead-slices=6 / bframes=4 / bframe-bias=0 / b-adapt=0 / ref=3 / limit-refs=3 / no-limit-modes / weightp / no-weightb / aq-mode=1 / qg-size=32 / aq-strength=1.00 / cbqpoffs=0 / crqpoffs=0 / rd=2 / psy-rd=2.00 / rdoq-level=0 / psy-rdoq=0.00 / log2-max-poc-lsb=8 / no-rd-refine / signhide / deblock=0:0 / sao / no-sao-non-deblock / b-pyramid / cutree / no-intra-refresh / rc=crf / crf=22.0 / qcomp=0.60 / qpmin=0 / qpmax=69 / qpstep=4 / ipratio=1.40 / pbratio=1.30 Encoded date : UTC 2018-02-11 22:30:38 Tagged date : UTC 2018-02-11 22:30:38 Color range : Limited Color primaries : BT.709 Transfer characteristics : BT.709 Matrix coefficients : BT.709</p>
<p>Audio ID : 2 Format : AAC Format/Info : Advanced Audio Codec Format profile : LC Codec ID : mp4a-40-2 Duration : 1 h 37 min Bit rate mode : Variable Bit rate : 160 kb/s Channel(s) : 2 channels Channel positions : Front: L R Sampling rate : 48.0 kHz Frame rate : 46.875 FPS (1024 SPF) Compression mode : Lossy Stream size : 112 MiB (7%) Title : Stereo / Stereo Language : English Default : Yes Alternate group : 1 Encoded date : UTC 2018-02-11 22:30:38 Tagged date : UTC 2018-02-11 22:30:38</p>
        <p class="toolbar">
            <a href="https://www.reddit.com/r/megalinks/comments/7wx6h4/_/du4tzzn">permalink</a>
        </p>
        
    </div>
</div>

<div class="comment" id="t1_du6500h">
    <p class="userinfo">
        <a
        class="toggle_hide_button"
        href="javascript:void(0)"
        onclick="toggle_collapse(this.parentElement.parentElement)">[-]
        </a>
        <a href="https://www.reddit.com/u/furikuri2">furikuri2</a>
        <span class="score"> | 2 points</span>
        <span class="timestamp"> | Feb 13 2018 07:05:09</span>
    </p>
    <div class="collapsible">
        <p>The file was taken down</p>
        <p class="toolbar">
            <a href="https://www.reddit.com/r/megalinks/comments/7wx6h4/_/du6500h">permalink</a>
        </p>
        
    </div>
</div>
</body>

<script>
function toggle_collapse(comment_div)
{
    var button = comment_div.getElementsByClassName("toggle_hide_button")[0];
    var collapsible = comment_div.getElementsByClassName("collapsible")[0];
    if (collapsible.classList.contains("hidden"))
    {
        collapsible.classList.remove("hidden");
        button.innerText = "[-]";
    }
    else
    {
        collapsible.classList.add("hidden");
        button.innerText = "[+]";
    }
}
</script>
</html>
